<?xml version="1.0" encoding="utf-8"?>
<!-- Generator: Adobe Illustrator 24.2.3, SVG Export Plug-In . SVG Version: 6.00 Build 0)  -->
<svg version="1.1" id="Layer_1" xmlns="http://www.w3.org/2000/svg" xmlns:xlink="http://www.w3.org/1999/xlink" x="0px" y="0px"
	 viewBox="0 0 632 191.5" style="enable-background:new 0 0 632 191.5;" xml:space="preserve">
<style type="text/css">
	.st0{fill:#00ADEE;}
</style>
<g>
	<polygon class="st0" points="11,149 11,43.6 40.8,43.6 40.8,83.4 72,43.6 111.5,43.6 76.3,83.4 113.1,149 76.4,149 56.2,105.6 
		40.6,123.3 40.6,149 	"/>
	<polygon class="st0" points="122.9,43.6 122.9,149 204.1,149 204.1,125.3 152.7,125.2 152.7,104.3 199,104.3 199,82.8 152.6,82.8 
		152.6,66.2 202.7,66.2 202.7,43.6 	"/>
	<rect x="139.3" y="21.3" class="st0" width="17" height="17.8"/>
	<rect x="167.1" y="21.3" class="st0" width="17" height="17.8"/>
	<polygon class="st0" points="220.6,149 248.4,149 248.4,90.9 284.4,149 312.5,149 312.5,16.4 284.6,16.4 284.6,102.1 248.2,43.6 
		220.6,43.6 	"/>
	<polygon class="st0" points="332.2,43.5 332.2,149 413.7,149 413.7,125.2 362,125.2 362,104.3 408.4,104.3 408.4,82.7 362,82.7 
		362,66.1 412,66.1 412,43.5 	"/>
	<polygon class="st0" points="422.8,43.5 513.2,43.5 513.2,75.1 482.7,75.1 482.7,175.1 453,175.1 453,75 422.8,75 	"/>
	<path class="st0" d="M576.5,43.5h-32.3l-36.1,105.3h30.2l4.8-17.2H577l4.7,17.2h31.1L576.5,43.5L576.5,43.5z M549.4,108.8L560.1,71
		l10.7,37.8H549.4L549.4,108.8z"/>
	<path class="st0" d="M596.9,46.1c-8.2,0-14.9-6.7-14.9-14.9s6.7-14.9,14.9-14.9s14.9,6.7,14.9,14.9S605.1,46.1,596.9,46.1z
		 M596.9,18.5c-7,0-12.7,5.7-12.7,12.7c0,7,5.7,12.7,12.7,12.7c7,0,12.7-5.7,12.7-12.7C609.6,24.2,603.9,18.5,596.9,18.5z"/>
	<path class="st0" d="M590.8,23.3c1.3-0.2,3.2-0.3,5-0.3c2.8,0,4.6,0.4,5.8,1.2c1,0.7,1.6,1.7,1.6,2.9c0,2-1.7,3.3-3.8,3.8V31
		c1.5,0.4,2.5,1.5,3,3c0.7,2.1,1.1,3.5,1.5,4.1h-2.7c-0.3-0.4-0.8-1.7-1.3-3.6c-0.6-2.1-1.7-2.9-4-2.9h-2.5v6.5h-2.6V23.3
		L590.8,23.3z M593.4,30.2h2.7c2.8,0,4.5-1.1,4.5-2.9c0-1.9-1.9-2.8-4.6-2.8c-1.3,0-2.2,0.1-2.6,0.2L593.4,30.2L593.4,30.2z"/>
</g>
</svg>
