<?xml version="1.0" encoding="UTF-8"?>
<svg id="Layer_1" data-name="Layer 1" xmlns="http://www.w3.org/2000/svg" viewBox="0 0 1246.62 226">
  <defs>
    <style>
      .cls-1 {
        fill: #00adee;
      }
    </style>
  </defs>
  <g>
    <polygon class="cls-1" points="25 174.14 25 53.04 59.2 53.04 59.2 98.82 95.15 53.05 140.54 53.05 100.06 98.76 142.27 174.14 100.1 174.14 76.88 124.29 59.01 144.63 59.01 174.14 25 174.14"/>
    <polygon class="cls-1" points="153.56 53.04 153.56 174.14 246.94 174.14 246.94 147 187.88 146.79 187.88 122.78 241.07 122.78 241.07 98.15 187.78 98.15 187.78 79.03 245.29 79.03 245.29 53.04 153.56 53.04"/>
    <rect class="cls-1" x="172.39" y="27.41" width="19.51" height="20.41"/>
    <rect class="cls-1" x="204.41" y="27.41" width="19.51" height="20.41"/>
    <polygon class="cls-1" points="265.84 174.14 297.86 174.14 297.86 107.39 339.22 174.14 371.52 174.14 371.52 21.77 339.36 21.77 339.36 120.31 297.58 53.04 265.84 53.04 265.84 174.14"/>
    <polygon class="cls-1" points="394.12 53 394.12 174.14 487.71 174.14 487.71 146.79 428.34 146.79 428.34 122.78 481.63 122.78 481.63 97.96 428.34 97.96 428.34 78.87 485.75 78.87 485.75 53 394.12 53"/>
    <polygon class="cls-1" points="498.22 53 602.12 53 602.12 89.28 567.07 89.28 567.07 204.23 532.85 204.23 532.85 89.18 498.22 89.18 498.22 53"/>
    <path class="cls-1" d="m674.78,53h-37.1s-41.43,121-41.43,121h34.73s5.46-19.79,5.46-19.79h38.96s5.36,19.79,5.36,19.79h35.76s-41.74-121-41.74-121Zm-31.09,74.93l12.3-43.43,12.3,43.43h-24.6Z"/>
    <path class="cls-1" d="m698.26,55.94c-9.42,0-17.09-7.66-17.09-17.09,0-9.42,7.66-17.09,17.09-17.09,9.42,0,17.09,7.66,17.09,17.09,0,9.42-7.66,17.09-17.09,17.09Zm0-31.7c-8.06,0-14.61,6.56-14.61,14.61,0,8.06,6.56,14.61,14.61,14.61,8.06,0,14.61-6.56,14.61-14.61,0-8.06-6.56-14.61-14.61-14.61Z"/>
    <path class="cls-1" d="m691.31,29.78c1.51-.23,3.67-.36,5.73-.36,3.19,0,5.25.44,6.69,1.41,1.17.77,1.82,1.95,1.82,3.28,0,2.28-1.92,3.79-4.36,4.41v.08c1.78.46,2.85,1.69,3.4,3.49.76,2.41,1.3,4.07,1.79,4.74h-3.09c-.38-.49-.89-1.97-1.54-4.13-.69-2.38-1.92-3.28-4.63-3.36h-2.81v7.48s-2.99,0-2.99,0v-17.04Zm2.99,7.87h3.05c3.19,0,5.22-1.31,5.22-3.28,0-2.23-2.16-3.2-5.32-3.23-1.44,0-2.47.1-2.95.21v6.3Z"/>
  </g>
  <rect class="cls-1" x="797.05" y="11" width="2.15" height="204"/>
  <g>
    <path class="cls-1" d="m929.33,62.85c3.57.66,6.31,2.12,8.23,4.37,1.92,2.25,2.88,4.96,2.88,8.13s-.59,6.48-1.79,9.92c-1.19,3.44-2.68,6.78-4.46,10.02-1.79,3.24-3.77,6.38-5.95,9.42-2.18,3.04-4.2,5.82-6.05,8.33-2.65,3.44-5.52,7.18-8.63,11.21-3.11,4.04-6.32,8.04-9.62,12-3.31,3.97-6.55,7.74-9.72,11.31-3.17,3.57-6.08,6.75-8.73,9.52,3.7-.4,7.67-.76,11.9-1.09,4.23-.33,8.33-.59,12.3-.79,3.97-.2,7.64-.3,11.01-.3s6.18.13,8.43.4c.53,1.72.79,3.37.79,4.96,0,3.57-2.25,5.36-6.75,5.36-8.07,0-15.94.23-23.61.69-7.67.46-15.41,1.82-23.21,4.07-.4.13-.99.2-1.79.2-.93,0-1.92-.3-2.98-.89-1.06-.6-2.05-1.32-2.98-2.18-.93-.86-1.69-1.82-2.28-2.88-.6-1.06-.89-2.05-.89-2.98,0-1.06.36-2.01,1.09-2.88.73-.86,1.49-1.69,2.28-2.48,7.27-7.67,14.55-15.38,21.83-23.12,7.27-7.74,13.89-16.17,19.84-25.3.53-.92,1.72-2.71,3.57-5.36,1.85-2.64,3.74-5.59,5.65-8.83,1.92-3.24,3.64-6.41,5.16-9.52,1.52-3.11,2.28-5.59,2.28-7.44,0-.92-.33-1.65-.99-2.18-.66-.53-1.42-.82-2.28-.89-.86-.06-1.79-.03-2.78.1-.99.13-1.75.27-2.28.4-5.56,2.12-10.68,5.49-15.38,10.12-4.7,4.63-9.62,9.99-14.78,16.07-1.46,1.72-2.58,3.31-3.37,4.76-.79,1.46-1.92,2.18-3.37,2.18-.27,0-.73-.06-1.39-.2-.66-.13-1.32-.43-1.98-.89-.66-.46-1.26-1.09-1.79-1.89-.53-.79-.79-1.85-.79-3.17,0-1.06.1-2.11.3-3.17.2-1.06.43-1.85.69-2.38,1.72-3.83,4.2-7.74,7.44-11.71,3.24-3.97,6.88-7.57,10.91-10.81,4.03-3.24,8.4-5.88,13.09-7.94,4.69-2.05,9.36-3.08,13.99-3.08,1.19,0,2.38.07,3.57.2,1.19.13,2.31.33,3.37.6Z"/>
    <path class="cls-1" d="m981.31,98.37c3.57.4,6.45,1.52,8.63,3.37,2.18,1.85,3.87,3.97,5.06,6.35s1.98,4.83,2.38,7.34c.4,2.51.6,4.63.6,6.35,0,4.37-1.09,9.46-3.27,15.28-2.18,5.82-5.19,11.31-9.03,16.47-3.84,5.16-8.5,9.52-13.99,13.1-5.49,3.57-11.48,5.36-17.96,5.36s-11.25-2.15-14.68-6.45c-3.44-4.3-5.16-9.89-5.16-16.77s.99-13.99,2.98-20.54,4.3-13.06,6.94-19.54c1.45-3.44,3.64-7.77,6.55-13,2.91-5.22,6.15-10.28,9.72-15.18,3.57-4.89,7.17-9.09,10.81-12.6,3.64-3.5,6.98-5.26,10.02-5.26,1.85,0,3.57.13,5.16.4,1.59.27,2.38.79,2.38,1.59,0,.66-.53,1.72-1.59,3.17-1.85,2.51-3.87,5.23-6.05,8.13-2.18,2.91-4.37,5.92-6.55,9.03-2.18,3.11-4.27,6.22-6.25,9.33-1.98,3.11-3.77,6.12-5.36,9.03,2.64-1.06,5.32-2.18,8.04-3.37,2.71-1.19,5.39-1.79,8.04-1.79.4,0,.79.03,1.19.1.4.07.86.1,1.39.1Zm-25.99,64.48c3.7,0,7.37-1.42,11.01-4.27,3.64-2.84,6.84-6.35,9.62-10.52,2.78-4.17,4.99-8.66,6.65-13.49,1.65-4.83,2.41-9.26,2.28-13.29-.13-4.03-1.39-7.27-3.77-9.72-2.38-2.45-6.15-3.4-11.31-2.88-3.57.4-6.84,2.08-9.82,5.06-2.98,2.98-5.49,6.62-7.54,10.91-2.05,4.3-3.64,8.93-4.76,13.89-1.13,4.96-1.69,9.49-1.69,13.59,0,2.38.63,4.76,1.88,7.14,1.26,2.38,3.74,3.57,7.44,3.57Z"/>
    <path class="cls-1" d="m1049.37,161.26c3.83-3.7,7.67-8.36,11.51-13.99,3.83-5.62,7.31-11.51,10.42-17.66,3.11-6.15,5.65-12.13,7.64-17.96,1.98-5.82,3.04-10.78,3.17-14.88.13-2.64,1.16-4.13,3.08-4.46,1.92-.33,3.97,0,6.15.99,2.18.99,4.07,2.35,5.65,4.07,1.59,1.72,2.11,3.31,1.59,4.76-1.98,5.43-4.4,10.95-7.24,16.57-2.85,5.62-5.95,11.11-9.33,16.47s-6.91,10.48-10.62,15.38c-3.7,4.89-7.41,9.2-11.11,12.9-4.1,4.1-7.64,6.42-10.61,6.94-2.98.53-5.43-.3-7.34-2.48-1.92-2.18-3.31-5.46-4.17-9.82-.86-4.36-1.22-9.33-1.09-14.88.13-4.23.69-8.79,1.69-13.69.99-4.89,2.18-9.49,3.57-13.79,1.39-4.3,2.91-7.87,4.56-10.71,1.65-2.84,3.14-4.27,4.46-4.27,4.63-.26,8.26.1,10.91,1.09,2.64.99,3.57,2.22,2.78,3.67-1.19,2.65-2.95,6.19-5.26,10.61-2.32,4.43-4.46,9.26-6.45,14.48-1.98,5.23-3.47,10.52-4.46,15.87-.99,5.36-.83,10.29.5,14.78Z"/>
    <path class="cls-1" d="m1101.15,109.68l1.19-2.98c.66-1.32,1.92-2.21,3.77-2.68,1.85-.46,3.5-.82,4.96-1.09,1.45-.26,3.04-.33,4.76-.2,1.72.13,3.37.73,4.96,1.79.79.4,1.19.76,1.19,1.09s-.27.83-.79,1.49c-1.98,3.31-3.84,6.55-5.56,9.72-1.72,3.17-3.31,6.28-4.76,9.33-1.85,4.23-3.54,8.47-5.06,12.7-1.52,4.23-2.61,8.67-3.27,13.29-.66,4.9-.33,7.61.99,8.13,1.32.66,2.81.37,4.46-.89,1.65-1.26,3.24-2.84,4.76-4.76,1.52-1.92,2.88-3.83,4.07-5.75,1.19-1.92,1.98-3.27,2.38-4.07,0-.13.43.2,1.29.99.86.79,1.29,1.26,1.29,1.39v.4c-.93,2.38-2.15,4.9-3.67,7.54-1.52,2.65-3.21,5.09-5.06,7.34-1.85,2.25-3.84,4.1-5.95,5.56-2.12,1.46-4.17,2.25-6.15,2.38-1.06.26-2.25.26-3.57,0-3.17-.4-5.46-1.72-6.85-3.97-1.39-2.25-2.18-4.96-2.38-8.14-.2-3.17.03-6.61.69-10.32.66-3.7,1.45-7.14,2.38-10.32,0-.13.03-.23.1-.3.06-.07.1-.23.1-.5l.6-1.59c.53-1.72,1.19-3.7,1.98-5.95.79-2.25,1.59-4.53,2.38-6.84.79-2.31,1.55-4.53,2.28-6.65.73-2.11,1.42-3.9,2.08-5.36l.4-.79Zm14.68-13.29c-2.65.13-4.3-.96-4.96-3.27-.66-2.31-.59-4.89.2-7.74.79-2.84,2.15-5.42,4.07-7.74,1.92-2.31,4.13-3.47,6.65-3.47,2.11-.26,3.67.07,4.66.99.99.93,1.62,2.25,1.88,3.97.26,1.72.1,3.61-.5,5.65-.6,2.05-1.49,3.94-2.68,5.65-1.19,1.72-2.61,3.14-4.27,4.27-1.66,1.12-3.34,1.69-5.06,1.69Z"/>
    <path class="cls-1" d="m1148.56,93.01c-1.98,4.76-3.87,9.19-5.65,13.29-1.79,4.1-3.44,8.07-4.96,11.9-1.52,3.84-2.94,7.71-4.27,11.61-1.32,3.9-2.65,8.1-3.97,12.6-.4.93-.89,2.78-1.49,5.56-.6,2.78-.96,5.36-1.09,7.74-.13.79-.07,1.79.2,2.98.26,1.19,1.06,1.92,2.38,2.18,2.25.4,4.96-.99,8.13-4.17,2.25-2.25,4.03-4.53,5.36-6.84,1.32-2.31,2.25-3.93,2.78-4.86l.2.2v-.2c0-.13.43.2,1.29.99.86.79,1.29,1.26,1.29,1.39v.4c-.93,2.38-2.25,4.93-3.97,7.64-1.72,2.71-3.67,5.16-5.85,7.34s-4.43,4.04-6.75,5.56c-2.32,1.52-4.46,2.28-6.45,2.28h-.99c-5.82-.13-9.42-2.05-10.81-5.75-1.39-3.7-1.69-8.46-.89-14.29l1.19-6.35c1.06-5.16,2.38-10.25,3.97-15.28,1.59-5.03,3.17-9.75,4.76-14.19,1.59-4.43,3.04-8.5,4.37-12.2,1.32-3.7,2.38-6.81,3.17-9.33-1.85-.13-3.64-.16-5.36-.1-1.72.07-3.44-.03-5.16-.3-1.85-.26-3.7-.63-5.56-1.09-1.85-.46-2.98-1.75-3.37-3.87-.26-1.45-.07-2.91.59-4.37.66-1.45,1.19-2.71,1.59-3.77.93.27,2.35.4,4.27.4h6.15c2.18,0,4.37-.06,6.55-.2,2.18-.13,4-.2,5.46-.2.4-1.06,1.06-2.38,1.98-3.97.92-1.59,1.98-3.5,3.17-5.75,1.85-3.44,4.3-5.75,7.34-6.94,3.04-1.19,6.28-.99,9.72.6,1.72.66,2.45,1.52,2.18,2.58-.27,1.06-.59,2.12-.99,3.17l-4.37,9.52c.79.13,1.45.2,1.98.2h30.36c9.65,0,19.25.13,28.77.4.66-.13,1.36-.13,2.08,0,.73.13,1.29.33,1.69.6,1.06,1.06,1.72,2.22,1.98,3.47.26,1.26-.73,2.08-2.98,2.48-5.43.66-11.08,1.26-16.96,1.79-5.89.53-11.84,1.09-17.86,1.69-6.02.6-12,1.19-17.96,1.79s-11.71,1.16-17.26,1.69Z"/>
    <path class="cls-1" d="m1166.82,170.59c-3.71,0-6.88-.43-9.52-1.29-2.65-.86-4.86-2.08-6.65-3.67-1.79-1.59-3.17-3.4-4.17-5.46-.99-2.05-1.69-4.2-2.08-6.45-.92-4.23-1.19-8.6-.79-13.1.4-4.5,1.32-8.96,2.78-13.39,1.45-4.43,3.3-8.66,5.56-12.7,2.25-4.03,4.83-7.77,7.74-11.21,1.59-1.72,3.4-3.5,5.46-5.36,2.05-1.85,4.27-3.34,6.65-4.46,2.38-1.12,4.93-1.75,7.64-1.89,2.71-.13,5.52.6,8.43,2.18,3.04,1.59,5.19,4.27,6.45,8.04,1.26,3.77,1.36,7.44.3,11.01-2.25,8.33-6.38,14.52-12.4,18.55-6.02,4.04-14.06,6.25-24.11,6.65-1.06,2.65-1.62,5.29-1.69,7.94-.07,2.65.26,5.03.99,7.14.73,2.12,1.88,3.9,3.47,5.36,1.59,1.46,3.5,2.25,5.75,2.38,5.03.4,9.95-.83,14.78-3.67,4.83-2.84,8.56-6.91,11.21-12.2,0-.13.43.2,1.29.99.86.79,1.29,1.26,1.29,1.39v.4c-2.12,6.35-5.66,11.71-10.62,16.07-4.96,4.37-10.88,6.61-17.76,6.75Zm13.09-67.06c-1.59.79-3.44,2.35-5.55,4.66-2.12,2.32-4.17,4.99-6.15,8.04-1.98,3.04-3.84,6.22-5.56,9.52-1.72,3.31-2.98,6.35-3.77,9.13,4.1-1.06,7.67-2.68,10.71-4.86,3.04-2.18,5.46-4.73,7.24-7.64,1.79-2.91,2.94-5.98,3.47-9.23.53-3.24.4-6.45-.4-9.62Z"/>
  </g>
</svg>