<?xml version="1.0" encoding="UTF-8"?>
<svg id="Layer_1" data-name="Layer 1" xmlns="http://www.w3.org/2000/svg" viewBox="0 0 1075.07 191.53">
  <defs>
    <style>
      .cls-1 {
        fill: #00adee;
      }
    </style>
  </defs>
  <g>
    <polygon class="cls-1" points="11 148.97 11 43.58 40.76 43.58 40.76 83.42 72.04 43.6 111.54 43.6 76.31 83.37 113.05 148.97 76.36 148.97 56.15 105.59 40.6 123.29 40.6 148.97 11 148.97"/>
    <polygon class="cls-1" points="122.88 43.58 122.88 148.97 204.14 148.97 204.14 125.35 152.74 125.17 152.74 104.27 199.03 104.27 199.03 82.84 152.65 82.84 152.65 66.2 202.7 66.2 202.7 43.58 122.88 43.58"/>
    <rect class="cls-1" x="139.26" y="21.28" width="16.98" height="17.76"/>
    <rect class="cls-1" x="167.13" y="21.28" width="16.98" height="17.76"/>
    <polygon class="cls-1" points="220.58 148.97 248.45 148.97 248.45 90.88 284.44 148.97 312.55 148.97 312.55 16.37 284.56 16.37 284.56 102.12 248.21 43.58 220.58 43.58 220.58 148.97"/>
    <polygon class="cls-1" points="332.22 43.55 332.22 148.97 413.66 148.97 413.66 125.17 362 125.17 362 104.27 408.37 104.27 408.37 82.67 362 82.67 362 66.06 411.96 66.06 411.96 43.55 332.22 43.55"/>
    <polygon class="cls-1" points="422.81 43.55 513.22 43.55 513.22 75.12 482.72 75.12 482.72 175.15 452.95 175.15 452.95 75.03 422.81 75.03 422.81 43.55"/>
    <path class="cls-1" d="m576.45,43.55h-32.29s-36.06,105.3-36.06,105.3h30.23s4.75-17.22,4.75-17.22h33.9s4.66,17.22,4.66,17.22h31.12s-36.33-105.3-36.33-105.3Zm-27.06,65.21l10.7-37.79,10.7,37.79h-21.41Z"/>
    <path class="cls-1" d="m596.89,46.11c-8.2,0-14.87-6.67-14.87-14.87,0-8.2,6.67-14.87,14.87-14.87s14.87,6.67,14.87,14.87-6.67,14.87-14.87,14.87Zm0-27.58c-7.01,0-12.72,5.7-12.72,12.72,0,7.01,5.7,12.72,12.72,12.72,7.01,0,12.72-5.7,12.72-12.72,0-7.01-5.7-12.72-12.72-12.72Z"/>
    <path class="cls-1" d="m590.84,23.34c1.31-.2,3.19-.31,4.99-.31,2.78,0,4.57.38,5.82,1.23,1.02.67,1.58,1.69,1.58,2.85,0,1.98-1.67,3.3-3.79,3.84v.07c1.55.4,2.48,1.47,2.96,3.03.66,2.1,1.14,3.55,1.55,4.13h-2.69c-.33-.42-.78-1.72-1.34-3.59-.6-2.07-1.67-2.85-4.03-2.92h-2.45v6.51s-2.6,0-2.6,0v-14.83Zm2.6,6.85h2.66c2.78,0,4.54-1.14,4.54-2.85,0-1.94-1.88-2.79-4.63-2.81-1.25,0-2.15.09-2.57.18v5.49Z"/>
  </g>
  <rect class="cls-1" x="681.85" y="7" width="1.87" height="177.53"/>
  <g>
    <path class="cls-1" d="m797.97,49.29c3.11.58,5.5,1.84,7.17,3.8,1.67,1.96,2.5,4.32,2.5,7.08s-.52,5.64-1.55,8.63c-1.04,2.99-2.33,5.9-3.88,8.72-1.55,2.82-3.28,5.55-5.18,8.2-1.9,2.65-3.66,5.07-5.27,7.25-2.3,2.99-4.81,6.25-7.51,9.76-2.71,3.51-5.5,6.99-8.37,10.45-2.88,3.45-5.7,6.73-8.46,9.84-2.76,3.11-5.3,5.87-7.6,8.29,3.22-.35,6.67-.66,10.36-.95,3.68-.29,7.25-.52,10.71-.69,3.45-.17,6.65-.26,9.58-.26s5.38.12,7.34.35c.46,1.5.69,2.94.69,4.32,0,3.11-1.96,4.66-5.87,4.66-7.02,0-13.87.2-20.55.6-6.68.41-13.41,1.58-20.2,3.54-.35.11-.86.17-1.55.17-.81,0-1.67-.26-2.59-.78-.92-.52-1.79-1.15-2.59-1.9-.81-.75-1.47-1.58-1.99-2.5-.52-.92-.78-1.78-.78-2.59,0-.92.32-1.75.95-2.5.63-.75,1.29-1.47,1.99-2.16,6.33-6.67,12.66-13.38,18.99-20.12,6.33-6.73,12.09-14.07,17.27-22.01.46-.8,1.5-2.36,3.11-4.66,1.61-2.3,3.25-4.86,4.92-7.68,1.67-2.82,3.16-5.58,4.49-8.29,1.32-2.7,1.99-4.86,1.99-6.47,0-.8-.29-1.44-.86-1.9-.58-.46-1.24-.72-1.99-.78-.75-.06-1.55-.03-2.42.09-.86.12-1.53.23-1.99.35-4.83,1.84-9.3,4.78-13.38,8.81-4.09,4.03-8.37,8.69-12.86,13.99-1.27,1.5-2.25,2.88-2.94,4.14-.69,1.27-1.67,1.9-2.94,1.9-.23,0-.63-.06-1.21-.17-.58-.11-1.15-.37-1.73-.78-.58-.4-1.1-.95-1.55-1.64-.46-.69-.69-1.61-.69-2.76,0-.92.09-1.84.26-2.76.17-.92.37-1.61.6-2.07,1.5-3.34,3.65-6.73,6.47-10.19,2.82-3.45,5.98-6.59,9.5-9.41,3.51-2.82,7.31-5.12,11.4-6.91,4.08-1.78,8.14-2.68,12.17-2.68,1.04,0,2.07.06,3.11.17,1.04.12,2.01.29,2.94.52Z"/>
    <path class="cls-1" d="m863.06,50.35c1.73.23,2.59.93,2.59,2.1.11,1.99-.03,3.59-.43,4.81-.41,1.23-.95,2.16-1.64,2.8s-1.47,1.08-2.33,1.31c-.86.23-1.76.35-2.68.35-2.76,0-5.76-.14-8.98-.43-3.22-.29-6.16-.43-8.81-.43-1.04,0-1.99.75-2.85,2.24-.86,1.5-1.73,3.28-2.59,5.35s-1.64,4.23-2.33,6.47c-.69,2.24-1.38,4.12-2.07,5.61,1.96,0,3.91-.06,5.87-.17,1.96-.11,3.91-.06,5.87.17,5.18.35,9.09,2.13,11.74,5.35,2.65,3.22,4.08,6.97,4.32,11.22.23,5.41-.63,10.91-2.59,16.49-1.96,5.58-4.78,10.62-8.46,15.11-3.69,4.49-8.09,8.09-13.21,10.79-5.12,2.71-10.73,3.88-16.83,3.54-1.96-.12-4.03-.52-6.22-1.21-2.19-.69-4.2-1.64-6.04-2.85s-3.39-2.62-4.66-4.23c-1.27-1.61-1.96-3.39-2.07-5.35-.11-1.84.32-3.11,1.29-3.8.98-.69,2.22-.23,3.71,1.38,1.96,1.84,4.32,3.43,7.08,4.75,2.76,1.33,5.98,2.16,9.67,2.5,3.91.34,7.6-.69,11.05-3.11,3.45-2.42,6.47-5.47,9.06-9.15,2.59-3.68,4.6-7.71,6.04-12.09,1.44-4.37,2.1-8.34,1.99-11.91-.23-2.65-1.27-4.81-3.11-6.48-1.84-1.67-4.38-2.5-7.6-2.5-2.65,0-5.12.26-7.42.78-2.3.52-4.26,1.76-5.87,3.71-1.15,1.15-2.24,1.73-3.28,1.73-1.27,0-2.48-.57-3.63-1.73-1.15-1.15-1.73-2.24-1.73-3.28-.12-.69,0-1.5.34-2.42,1.61-4.85,3.19-9.65,4.75-14.39,1.55-4.74,3.08-9.54,4.58-14.39.69-2.2,1.26-3.99,1.73-5.38.46-1.39,1.01-2.46,1.64-3.21.63-.75,1.44-1.27,2.42-1.56.98-.29,2.33-.43,4.06-.43,4.6,0,9.41.23,14.42.7s9.41.87,13.21,1.22Z"/>
    <path class="cls-1" d="m914.17,134.93c3.34-3.22,6.67-7.28,10.01-12.17,3.34-4.89,6.36-10.01,9.06-15.37,2.7-5.35,4.92-10.56,6.65-15.63,1.73-5.06,2.65-9.38,2.76-12.95.11-2.3,1.01-3.6,2.68-3.89,1.67-.29,3.45,0,5.35.86,1.9.86,3.54,2.05,4.92,3.54,1.38,1.5,1.84,2.88,1.38,4.14-1.73,4.72-3.83,9.53-6.3,14.42-2.48,4.89-5.18,9.67-8.12,14.33s-6.02,9.12-9.24,13.38c-3.22,4.26-6.45,8-9.67,11.22-3.57,3.57-6.65,5.58-9.24,6.04s-4.72-.26-6.39-2.16c-1.67-1.9-2.88-4.75-3.63-8.55-.75-3.8-1.07-8.12-.95-12.95.11-3.68.6-7.65,1.47-11.91.86-4.26,1.9-8.26,3.11-12,1.21-3.74,2.53-6.85,3.97-9.32,1.44-2.47,2.73-3.71,3.89-3.71,4.03-.23,7.19.09,9.5.95,2.3.86,3.11,1.93,2.42,3.19-1.04,2.3-2.56,5.38-4.58,9.24-2.02,3.86-3.88,8.06-5.61,12.6-1.73,4.55-3.02,9.15-3.88,13.81-.86,4.66-.72,8.95.43,12.86Z"/>
    <path class="cls-1" d="m959.23,90.04l1.04-2.59c.57-1.15,1.67-1.93,3.28-2.33,1.61-.4,3.05-.72,4.32-.95,1.27-.23,2.65-.29,4.14-.17,1.5.12,2.94.63,4.32,1.55.69.35,1.04.66,1.04.95s-.23.72-.69,1.29c-1.73,2.88-3.34,5.7-4.83,8.46-1.5,2.76-2.88,5.47-4.14,8.11-1.61,3.69-3.08,7.37-4.4,11.05-1.33,3.69-2.27,7.54-2.85,11.57-.58,4.26-.29,6.62.86,7.08,1.15.58,2.44.32,3.88-.78,1.44-1.09,2.82-2.47,4.14-4.14,1.32-1.67,2.5-3.34,3.54-5.01,1.04-1.67,1.73-2.85,2.07-3.54,0-.11.37.17,1.12.86.75.69,1.12,1.1,1.12,1.21v.34c-.81,2.07-1.87,4.26-3.19,6.56-1.33,2.3-2.79,4.43-4.4,6.39-1.61,1.96-3.34,3.57-5.18,4.83-1.84,1.27-3.63,1.96-5.35,2.07-.92.23-1.96.23-3.11,0-2.76-.35-4.75-1.49-5.96-3.45-1.21-1.96-1.9-4.32-2.07-7.08s.03-5.75.6-8.98c.57-3.22,1.26-6.22,2.07-8.98,0-.11.03-.2.09-.26s.09-.2.09-.43l.52-1.38c.46-1.5,1.04-3.22,1.73-5.18.69-1.96,1.38-3.94,2.07-5.96.69-2.01,1.35-3.94,1.99-5.78.63-1.84,1.24-3.39,1.81-4.66l.35-.69Zm12.78-11.57c-2.3.12-3.74-.83-4.32-2.85-.58-2.01-.52-4.26.17-6.73.69-2.47,1.87-4.72,3.54-6.73,1.67-2.01,3.6-3.02,5.78-3.02,1.84-.23,3.19.06,4.06.86.86.81,1.41,1.96,1.64,3.45.23,1.5.09,3.14-.43,4.92-.52,1.79-1.29,3.43-2.33,4.92-1.04,1.5-2.27,2.74-3.71,3.71-1.44.98-2.91,1.47-4.4,1.47Z"/>
    <path class="cls-1" d="m1000.49,75.53c-1.73,4.14-3.37,8-4.92,11.57-1.55,3.57-2.99,7.02-4.32,10.36-1.32,3.34-2.56,6.71-3.71,10.1-1.15,3.4-2.3,7.05-3.45,10.96-.35.81-.78,2.42-1.29,4.83-.52,2.42-.84,4.66-.95,6.73-.12.69-.06,1.55.17,2.59.23,1.04.92,1.67,2.07,1.9,1.96.35,4.32-.86,7.08-3.63,1.96-1.96,3.51-3.94,4.66-5.96,1.15-2.01,1.96-3.42,2.42-4.23l.17.17v-.17c0-.11.37.17,1.12.86.75.69,1.12,1.1,1.12,1.21v.34c-.81,2.07-1.96,4.29-3.45,6.65-1.5,2.36-3.19,4.49-5.09,6.39s-3.86,3.51-5.87,4.83c-2.02,1.32-3.88,1.99-5.61,1.99h-.86c-5.07-.12-8.2-1.78-9.41-5.01-1.21-3.22-1.47-7.36-.78-12.43l1.04-5.52c.92-4.49,2.07-8.92,3.45-13.29,1.38-4.37,2.76-8.49,4.14-12.35,1.38-3.85,2.65-7.39,3.8-10.62,1.15-3.22,2.07-5.93,2.76-8.11-1.61-.11-3.17-.14-4.66-.09-1.5.06-2.99-.03-4.49-.26-1.61-.23-3.22-.54-4.83-.95-1.61-.4-2.59-1.52-2.94-3.37-.23-1.27-.06-2.53.52-3.8.58-1.27,1.04-2.36,1.38-3.28.81.23,2.04.35,3.71.35h5.35c1.9,0,3.8-.06,5.7-.17,1.9-.11,3.48-.17,4.75-.17.34-.92.92-2.07,1.73-3.45.8-1.38,1.73-3.05,2.76-5.01,1.61-2.99,3.74-5.01,6.39-6.04,2.65-1.04,5.47-.86,8.46.52,1.49.58,2.13,1.32,1.9,2.24-.23.92-.52,1.84-.86,2.76l-3.8,8.29c.69.12,1.27.17,1.73.17h26.42c8.4,0,16.75.12,25.04.35.57-.11,1.18-.11,1.81,0,.63.12,1.12.29,1.47.52.92.92,1.5,1.93,1.73,3.02.23,1.1-.63,1.81-2.59,2.16-4.72.58-9.64,1.1-14.76,1.55-5.12.46-10.3.95-15.54,1.47-5.24.52-10.45,1.04-15.63,1.55-5.18.52-10.19,1.01-15.02,1.47Z"/>
    <path class="cls-1" d="m1016.37,143.04c-3.22,0-5.99-.37-8.29-1.12-2.3-.75-4.23-1.81-5.78-3.19-1.55-1.38-2.76-2.96-3.63-4.75-.86-1.78-1.47-3.65-1.81-5.61-.8-3.68-1.04-7.48-.69-11.4.35-3.91,1.15-7.8,2.42-11.65,1.27-3.86,2.88-7.54,4.83-11.05,1.96-3.51,4.2-6.76,6.73-9.76,1.38-1.49,2.96-3.05,4.75-4.66,1.78-1.61,3.71-2.91,5.78-3.88,2.07-.98,4.29-1.52,6.65-1.64,2.36-.11,4.8.52,7.34,1.9,2.65,1.38,4.52,3.71,5.61,6.99,1.09,3.28,1.18,6.47.26,9.58-1.96,7.25-5.55,12.63-10.79,16.14-5.24,3.51-12.23,5.44-20.98,5.78-.92,2.3-1.41,4.6-1.47,6.91-.06,2.3.23,4.38.86,6.22.63,1.84,1.64,3.4,3.02,4.66,1.38,1.27,3.05,1.96,5.01,2.07,4.37.35,8.66-.72,12.86-3.19,4.2-2.47,7.45-6.01,9.75-10.62,0-.11.37.17,1.12.86.75.69,1.12,1.1,1.12,1.21v.34c-1.84,5.53-4.92,10.19-9.24,13.99-4.32,3.8-9.47,5.75-15.45,5.87Zm11.4-58.36c-1.38.69-3,2.04-4.83,4.06-1.84,2.02-3.63,4.35-5.35,6.99-1.73,2.65-3.34,5.41-4.83,8.29-1.5,2.88-2.59,5.53-3.28,7.94,3.57-.92,6.67-2.33,9.32-4.23,2.65-1.9,4.75-4.11,6.3-6.65,1.55-2.53,2.56-5.21,3.02-8.03.46-2.82.35-5.61-.34-8.37Z"/>
  </g>
</svg>